<svg width="401" height="255" viewBox="0 0 401 255" fill="none" xmlns="http://www.w3.org/2000/svg">
<path d="M100.048 109.726C108.896 109.726 116.564 105.891 120.104 100.582V108.546H141.782V63.4204C141.782 43.3647 127.772 33.0419 108.011 33.0419C89.8726 33.0419 76.7479 44.397 74.6834 59.5863H96.0663C96.8036 53.0976 101.523 49.2635 108.011 49.2635C115.237 49.2635 120.104 53.5401 120.104 60.3236V61.5034L106.242 62.8306C84.2688 65.1901 74.5359 73.1534 74.5359 87.6053C74.5359 100.288 84.7112 109.726 100.048 109.726ZM95.7714 86.7205C95.7714 81.854 99.1631 79.347 106.979 78.4622L120.104 76.8401C120.104 86.1306 114.5 93.504 105.062 93.504C99.4581 93.504 95.7714 90.997 95.7714 86.7205Z" fill="black"/>
<path d="M181.786 109.726C201.989 109.726 215.851 96.7483 218.063 80.3793H196.238C194.91 87.3103 189.454 91.292 181.786 91.292C172.348 91.292 165.122 83.1812 165.122 71.2363C165.122 59.2913 172.348 51.4755 181.786 51.4755C189.307 51.4755 194.763 55.8995 196.09 62.8306H217.768C215.704 44.6919 202.726 33.0419 181.638 33.0419C159.076 33.0419 143.149 49.116 143.149 71.2363C143.149 93.504 159.223 109.726 181.786 109.726Z" fill="black"/>
<path d="M219.639 108.546H241.464V34.2217H219.639V108.546ZM217.575 12.8388C217.575 20.0647 223.178 25.3736 230.404 25.3736C237.925 25.3736 243.381 20.0647 243.381 12.8388C243.381 5.61282 237.925 0.303955 230.404 0.303955C223.178 0.303955 217.575 5.61282 217.575 12.8388Z" fill="black"/>
<path d="M280.256 109.726C288.956 109.726 297.214 106.186 301.196 100.73V108.546H323.021V4.13814H301.196V42.0375C297.214 36.5812 288.956 33.0419 280.256 33.0419C258.43 33.0419 243.978 47.7888 243.978 71.3837C243.978 94.9787 258.43 109.726 280.256 109.726ZM265.951 71.3837C265.951 59.4388 273.177 51.4755 283.5 51.4755C293.97 51.4755 301.196 59.4388 301.196 71.3837C301.196 83.1812 293.97 91.292 283.5 91.292C273.177 91.292 265.951 83.1812 265.951 71.3837Z" fill="black"/>
<path d="M37.9586 254.335C60.5212 254.335 76.8902 242.685 76.8902 220.859V151.992H55.0649V158.923C50.4934 153.319 43.12 150.812 35.5991 150.812C13.9212 150.812 0.354126 164.526 0.354126 186.647C0.354126 208.619 14.0687 222.482 35.5991 222.482C43.12 222.482 50.4934 219.827 55.0649 214.371V223.219C55.0649 233.099 48.1339 238.113 38.5484 238.113C31.3225 238.113 26.0136 234.721 24.5389 229.118H3.00856C4.77818 242.98 17.9029 254.335 37.9586 254.335ZM21.2946 186.647C21.2946 175.439 28.2257 168.066 38.2535 168.066C48.2814 168.066 55.0649 175.439 55.0649 186.647C55.0649 197.707 48.2814 205.228 38.2535 205.228C28.2257 205.228 21.2946 197.707 21.2946 186.647Z" fill="black"/>
<path d="M82.5943 226.316H104.42V193.725C104.42 178.388 110.318 169.835 120.641 169.835C128.162 169.835 133.323 175.144 133.323 183.55V226.316H155.149V178.978C155.149 161.43 143.794 150.812 127.425 150.812C116.365 150.812 107.959 155.531 104.42 160.102V121.908H82.5943V226.316Z" fill="black"/>
<path d="M196.28 227.495C219.137 227.495 235.801 211.569 235.801 189.006C235.801 166.591 219.285 150.812 196.28 150.812C173.422 150.812 156.758 166.591 156.758 189.006C156.758 211.421 173.275 227.495 196.28 227.495ZM178.731 189.006C178.731 177.061 185.809 169.245 196.28 169.245C206.75 169.245 213.976 177.209 213.976 189.006C213.976 200.951 206.75 209.062 196.28 209.062C185.809 209.062 178.731 200.951 178.731 189.006Z" fill="black"/>
<path d="M265.574 227.495C282.68 227.495 294.92 217.468 294.92 203.606C294.92 173.669 255.251 183.402 255.251 171.457C255.251 168.213 258.495 166.296 262.919 166.296C269.113 166.296 273.537 169.54 274.717 174.997H294.183C292.266 160.102 281.058 150.812 262.919 150.812C246.108 150.812 235.785 160.545 235.785 172.785C235.785 200.656 275.012 191.661 275.012 204.343C275.012 208.472 271.473 210.979 265.574 210.979C258.495 210.979 254.661 207.44 253.924 201.246H234.458C235.343 216.435 246.698 227.495 265.574 227.495Z" fill="black"/>
<path d="M330.763 227.495C334.892 227.495 338.431 226.906 341.97 225.431V207.292C339.464 208.177 336.219 208.619 333.712 208.619C327.961 208.619 324.127 205.08 324.127 198.149V169.688H341.086V151.992H324.127V134.295H302.449V151.992H290.799V169.688H302.449V200.214C302.449 217.91 314.689 227.495 330.763 227.495Z" fill="black"/>
<path d="M371.008 227.495C388.114 227.495 400.354 217.468 400.354 203.606C400.354 173.669 360.685 183.402 360.685 171.457C360.685 168.213 363.929 166.296 368.353 166.296C374.547 166.296 378.971 169.54 380.151 174.997H399.617C397.7 160.102 386.492 150.812 368.353 150.812C351.542 150.812 341.219 160.545 341.219 172.785C341.219 200.656 380.446 191.661 380.446 204.343C380.446 208.472 376.907 210.979 371.008 210.979C363.929 210.979 360.095 207.44 359.358 201.246H339.892C340.777 216.435 352.132 227.495 371.008 227.495Z" fill="black"/>
</svg>
